<?xml version="1.0" encoding="UTF-8"?>
<svg width="90px" height="90px" viewBox="0 0 90 90" version="1.1" xmlns="http://www.w3.org/2000/svg" xmlns:xlink="http://www.w3.org/1999/xlink">
    <!-- Generator: Sketch 64 (93537) - https://sketch.com -->
    <title>bed</title>
    <desc>Created with Sketch.</desc>
    <g id="Alle-artboards" stroke="none" stroke-width="1" fill="none" fill-rule="evenodd">
        <g id="bed">
            <g id="Group-26-Copy" fill="#FFFFFF">
                <rect id="Rectangle-Copy-23" x="0" y="0" width="90" height="90"></rect>
            </g>
            <g id="bed-copy" transform="translate(16.000000, 10.000000)" fill="#0093D0" fill-rule="nonzero">
                <path d="M55.3125,0 L3.6875,0 C1.65445833,0 0,1.65700758 0,3.69318182 L0,18.4659091 L0,20.9280303 L0,33.2386364 C0,33.9181818 0.550666667,34.469697 1.22916667,34.469697 L4.91666667,34.469697 L4.91666667,38.1628788 C4.91666667,38.8424242 5.46733333,39.3939394 6.14583333,39.3939394 L11.0625,39.3939394 C11.741,39.3939394 12.2916667,38.8424242 12.2916667,38.1628788 L12.2916667,34.469697 L46.7083333,34.469697 L46.7083333,38.1628788 C46.7083333,38.8424242 47.259,39.3939394 47.9375,39.3939394 L52.8541667,39.3939394 C53.5326667,39.3939394 54.0833333,38.8424242 54.0833333,38.1628788 L54.0833333,34.469697 L57.7708333,34.469697 C58.4493333,34.469697 59,33.9181818 59,33.2386364 L59,20.9280303 L59,18.4659091 L59,3.69318182 C59,1.65700758 57.3455417,0 55.3125,0 Z M3.6875,2.46212121 L55.3125,2.46212121 C55.9885417,2.46212121 56.5416667,3.01363636 56.5416667,3.69318182 L56.5416667,14.9992424 C56.1557083,14.8613636 55.7451667,14.7727273 55.3125,14.7727273 L49.1666667,14.7727273 L49.1666667,11.0795455 C49.1666667,10.4 48.616,9.84848485 47.9375,9.84848485 L33.1875,9.84848485 C32.509,9.84848485 31.9583333,10.4 31.9583333,11.0795455 L31.9583333,14.7727273 L27.0416667,14.7727273 L27.0416667,11.0795455 C27.0416667,10.4 26.491,9.84848485 25.8125,9.84848485 L11.0625,9.84848485 C10.384,9.84848485 9.83333333,10.4 9.83333333,11.0795455 L9.83333333,14.7727273 L3.6875,14.7727273 C3.25483333,14.7727273 2.84429167,14.8613636 2.45833333,14.9992424 L2.45833333,3.69318182 C2.45833333,3.01363636 3.01145833,2.46212121 3.6875,2.46212121 Z M46.7083333,14.7727273 L34.4166667,14.7727273 L34.4166667,12.3106061 L46.7083333,12.3106061 L46.7083333,14.7727273 Z M24.5833333,14.7727273 L12.2916667,14.7727273 L12.2916667,12.3106061 L24.5833333,12.3106061 L24.5833333,14.7727273 Z M9.83333333,36.9318182 L7.375,36.9318182 L7.375,34.469697 L9.83333333,34.469697 L9.83333333,36.9318182 Z M51.625,36.9318182 L49.1666667,36.9318182 L49.1666667,34.469697 L51.625,34.469697 L51.625,36.9318182 Z M56.5416667,32.0075758 L2.45833333,32.0075758 L2.45833333,20.9280303 L2.45833333,18.4659091 C2.45833333,17.7863636 3.01145833,17.2348485 3.6875,17.2348485 L11.0625,17.2348485 L25.8125,17.2348485 L33.1875,17.2348485 L47.9375,17.2348485 L55.3125,17.2348485 C55.9885417,17.2348485 56.5416667,17.7863636 56.5416667,18.4659091 L56.5416667,20.9280303 L56.5416667,32.0075758 Z" id="Shape"></path>
            </g>
        </g>
    </g>
</svg>