<?xml version="1.0" encoding="UTF-8"?>
<svg width="90px" height="90px" viewBox="0 0 90 90" version="1.1" xmlns="http://www.w3.org/2000/svg" xmlns:xlink="http://www.w3.org/1999/xlink">
    <!-- Generator: Sketch 64 (93537) - https://sketch.com -->
    <title>gordijnen</title>
    <desc>Created with Sketch.</desc>
    <g id="Alle-artboards" stroke="none" stroke-width="1" fill="none" fill-rule="evenodd">
        <g id="gordijnen">
            <g id="Group-25">
                <rect id="Rectangle" fill="#FFFFFF" x="0" y="0" width="90" height="90"></rect>
                <g id="gordijnen-copy" transform="translate(15.000000, 10.000000)" fill="#0093D0">
                    <path d="M7.92066885,32.8616262 C8.0245377,33.1557246 8.13450492,33.4478557 8.23188197,33.7443148 C8.83325902,35.5761836 9.53102951,37.3838557 10.0017836,39.2487738 C10.415882,40.8890361 10.6076852,42.5892984 10.8295869,44.2720525 C10.9106361,44.8873967 10.5748328,45.4567082 9.88689836,45.344577 C9.53181639,45.2865443 8.99614426,44.7978885 8.97332459,44.4736918 C8.68473443,40.3580852 7.26263607,36.5651016 5.76676721,32.7886426 C5.64519344,32.4817574 5.47542295,32.1937574 5.32788197,31.8969049 C5.2525377,31.9207082 5.17719344,31.9445115 5.10184918,31.9683148 L5.10184918,58.3628066 L16.6639475,58.3628066 C16.4076197,48.8900852 13.1324066,40.5500852 7.92066885,32.8616262 L7.92066885,32.8616262 Z M54.8865049,58.3785443 L54.8865049,31.9685115 C54.8099803,31.9443148 54.7334557,31.920118 54.6569311,31.8959213 C54.5070295,32.1912 54.3319475,32.4764459 54.2111607,32.7829377 C52.7217836,36.5607738 51.2802098,40.3484459 51.0108984,44.468577 C50.9898492,44.7929705 50.4138492,45.3278557 50.1063738,45.3203803 C49.7754885,45.312118 49.3924721,44.822282 49.1587672,44.4609049 C49.0269639,44.2571016 49.1109639,43.8811672 49.1646689,43.5955279 C49.4908328,41.8620197 49.7448,40.1078557 50.2000131,38.4079869 C50.703423,36.5269377 51.3968656,34.6966426 52.0072918,32.8443148 C46.8693246,40.5740852 43.5744393,48.9197902 43.3409311,58.3785443 L54.8865049,58.3785443 Z M5.10027541,1.97480656 L5.10027541,29.8832656 C5.1768,29.9141508 5.25312787,29.9450361 5.32945574,29.976118 C5.5488,29.6145443 5.80611148,29.2704787 5.98158689,28.8886426 C7.92322623,24.6597246 8.97096393,20.1744787 9.7432918,15.6140852 C9.96224262,14.3206426 10.2866361,13.8453639 11.0117508,14.033823 C12.1118164,14.3194623 11.7703082,15.206282 11.6560131,15.8989377 C10.9246033,20.3318557 9.89673443,24.6878557 8.13234098,28.8414295 C8.06191475,29.0072656 8.02591475,29.1880525 7.88899672,29.645823 C9.7303082,27.9044459 11.0577836,26.1372984 12.131882,24.182282 C15.8115541,17.4847082 16.7562098,10.2144787 16.6065049,2.71428197 C16.5919475,1.98326557 16.1715541,1.97028197 15.6378492,1.97159256 C12.5249311,1.98011803 9.41220984,1.9752 6.2992918,1.97480656 L5.10027541,1.97480656 Z M51.8654557,29.4563803 C51.9179803,29.4199869 51.9707016,29.3837902 52.023423,29.3475934 C51.9112918,29.0540852 51.8040787,28.7584131 51.6860459,28.4670689 C49.965718,24.2285115 48.9156197,19.8148721 48.2396852,15.3024787 C48.1446689,14.6672656 48.2800131,14.1624787 48.9736525,14.0359869 C49.655882,13.9114623 50.0054557,14.2974295 50.113259,14.9475934 C50.219882,15.5930361 50.3288656,16.238282 50.4502426,16.8813639 C51.2347672,21.0378885 52.2431607,25.1294951 54.0404066,28.9848393 C54.2032918,29.3336262 54.4535213,29.6416918 54.6630295,29.9684459 C54.7379803,29.9385443 54.8129311,29.9082492 54.887882,29.8781508 L54.887882,2.0139541 C54.6179803,1.98739672 54.3636197,1.94077377 54.1090623,1.94057705 C50.8655213,1.93742951 47.6213902,1.96398689 44.3780459,1.92558918 C43.5945049,1.91657705 43.3832262,2.18038033 43.3670951,2.93342951 C43.2897836,6.54759344 43.4996852,10.1375607 44.1762098,13.690741 C45.1627672,18.8727738 46.9334557,23.7192 50.3666361,27.8310689 C50.8383738,28.3960525 51.3644066,28.9155934 51.8654557,29.4563803 L51.8654557,29.4563803 Z M3.04670164,1.93703607 C2.34519344,1.93703607 1.7290623,1.93585574 1.11312787,1.93742951 C0.459422951,1.9392 -0.00365901639,1.65001967 -0.000138201041,0.973101639 C0.00381639344,0.289101639 0.483619672,0.0302163934 1.13122623,0.0300196721 C4.31102951,0.0296262295 7.49102951,0.021757377 10.6710295,0.0215606557 C26.3745049,0.0205770492 42.0779803,0.0207737705 57.781259,0.0231344262 C58.2720787,0.0231344262 58.8116852,-0.0665704918 59.2385705,0.106937705 C59.576341,0.24424918 59.9528656,0.708118033 59.9796197,1.05277377 C59.999882,1.31539672 59.5324721,1.80897049 59.2220459,1.8644459 C58.5284066,1.98857705 57.7973902,1.9032 56.9249311,1.9032 L56.9249311,3.24483934 C56.9249311,21.6693639 56.9249311,40.0938885 56.9247344,58.5184131 C56.9247344,60.2405115 56.8308984,60.3329705 55.0690623,60.3329705 C51.0366689,60.3335607 47.0042754,60.336118 42.971882,60.3313967 C41.653259,60.3300197 41.427423,60.106741 41.4335213,58.779659 C41.4701115,50.8008393 43.7410623,43.4172984 47.4551607,36.4334951 C48.4228328,34.6140197 49.5205377,32.8637902 50.6044721,31.0028066 C42.8294557,22.9244459 41.2865705,12.7606426 41.4339148,2.00234754 L18.5817836,2.00234754 C18.7346361,12.7055607 17.1960787,22.8428066 9.35712787,31.047659 C9.63745574,31.481823 9.9380459,31.9384131 10.2295869,32.4007082 C14.4049967,39.0195934 17.3180459,46.1176918 18.2829639,53.9304787 C18.4952262,55.6486426 18.4979803,57.3937574 18.5760787,59.1274623 C18.6126689,59.9324459 18.2034885,60.3384787 17.3847344,60.3374969 C13.0246033,60.3327738 8.66427541,60.3416262 4.30414426,60.3249049 C3.32702951,60.3213639 3.08840656,60.0060197 3.08761967,58.8514623 C3.08407869,53.4093639 3.08781639,47.9672656 3.08801311,42.5251672 C3.0888,29.3133639 3.08899672,16.1015607 3.08781639,2.88956066 C3.08781639,2.63008525 3.06598033,2.37041311 3.04670164,1.93703607 L3.04670164,1.93703607 Z" id="Fill-1"></path>
                </g>
            </g>
        </g>
    </g>
</svg>