<?xml version="1.0" encoding="UTF-8"?>
<svg width="90px" height="90px" viewBox="0 0 90 90" version="1.1" xmlns="http://www.w3.org/2000/svg" xmlns:xlink="http://www.w3.org/1999/xlink">
    <!-- Generator: Sketch 64 (93537) - https://sketch.com -->
    <title>leer</title>
    <desc>Created with Sketch.</desc>
    <g id="Alle-artboards" stroke="none" stroke-width="1" fill="none" fill-rule="evenodd">
        <g id="leer">
            <g id="Group-26-Copy-4" fill="#FFFFFF">
                <rect id="Rectangle-Copy-23" x="0" y="0" width="90" height="90"></rect>
            </g>
            <g id="leer-copy" transform="translate(21.000000, 10.000000)" fill="#0093D0" fill-rule="nonzero">
                <path d="M47.9158333,17.4985417 C48.4222917,17.29 48.75,16.7970833 48.75,16.25 L48.75,8.125 C48.75,7.67 48.5225,7.24479167 48.140625,6.995625 C47.75875,6.74645833 47.2820833,6.70583333 46.8595833,6.881875 C44.9691667,7.694375 42.8133333,8.125 40.625,8.125 C34.7533333,8.125 29.7916667,5.02395833 29.7916667,1.35416667 C29.7916667,0.606666667 29.185,0 28.4375,0 L20.3125,0 C19.565,0 18.9583333,0.606666667 18.9583333,1.35416667 C18.9583333,5.02395833 13.9966667,8.125 8.125,8.125 C5.93666667,8.125 3.78083333,7.694375 1.89041667,6.881875 C1.46791667,6.70041667 0.988541667,6.74375 0.609375,6.995625 C0.2275,7.24479167 0,7.67 0,8.125 L0,16.25 C0,16.7970833 0.327708333,17.29 0.834166667,17.4985417 C6.90895833,20.0335417 10.8333333,25.9214583 10.8333333,32.5 C10.8333333,39.0785417 6.90895833,44.9664583 0.834166667,47.5014583 C0.327708333,47.71 0,48.2029167 0,48.75 L0,58.5541667 C0,59.0795833 0.306041667,59.5589583 0.782708333,59.7810417 C1.259375,60.0058333 1.82,59.93 2.22625,59.58875 C4.27645833,57.8635417 7.41270833,56.875 10.8333333,56.875 C17.0977083,56.875 23.0208333,60.165625 23.0208333,63.6458333 C23.0208333,64.3933333 23.6275,65 24.375,65 C25.1225,65 25.7291667,64.3933333 25.7291667,63.6458333 C25.7291667,60.165625 31.6522917,56.875 37.9166667,56.875 C41.3372917,56.875 44.4735417,57.8635417 46.52375,59.58875 C46.9272917,59.9272917 47.4879167,60.003125 47.9672917,59.7810417 C48.4439583,59.5589583 48.75,59.0795833 48.75,58.5541667 L48.75,48.75 C48.75,48.2029167 48.4222917,47.71 47.9158333,47.5014583 C41.8410417,44.9664583 37.9166667,39.0785417 37.9166667,32.5 C37.9166667,25.9214583 41.8410417,20.0335417 47.9158333,17.4985417 Z M35.2083333,32.5 C35.2083333,39.869375 39.430625,46.4966667 46.0416667,49.6302083 L46.0416667,56.038125 C43.7422917,54.8329167 40.9039583,54.1666667 37.9166667,54.1666667 C32.6435417,54.1666667 26.9208333,56.346875 24.375,59.78375 C21.8291667,56.346875 16.1064583,54.1666667 10.8333333,54.1666667 C7.84604167,54.1666667 5.00770833,54.8329167 2.70833333,56.038125 L2.70833333,49.6302083 C9.319375,46.4966667 13.5416667,39.869375 13.5416667,32.5 C13.5416667,25.130625 9.319375,18.5033333 2.70833333,15.3697917 L2.70833333,10.0533333 C4.428125,10.5652083 6.26979167,10.8333333 8.125,10.8333333 C15.0610417,10.8333333 20.6239583,7.36125 21.5366667,2.70833333 L27.2160417,2.70833333 C28.1260417,7.36125 33.6889583,10.8333333 40.625,10.8333333 C42.4802083,10.8333333 44.321875,10.5652083 46.0416667,10.0533333 L46.0416667,15.3697917 C39.430625,18.5033333 35.2083333,25.130625 35.2083333,32.5 Z" id="Shape"></path>
            </g>
        </g>
    </g>
</svg>